<svg width="59" height="34" viewBox="0 0 59 34" fill="none" xmlns="http://www.w3.org/2000/svg">
<rect width="58.65" height="34" rx="17" fill="black"/>
<path d="M13.5965 21.0459V13.0459H14.8035V16.5225H18.7918V13.0459H20.0027V21.0459H18.7918V17.5576H14.8035V21.0459H13.5965ZM23.4129 21.1787C23.0327 21.1787 22.6889 21.1084 22.3816 20.9678C22.0743 20.8245 21.8309 20.6175 21.6512 20.3467C21.4741 20.0758 21.3855 19.7438 21.3855 19.3506C21.3855 19.012 21.4507 18.7334 21.5809 18.5146C21.7111 18.2959 21.8868 18.1227 22.1082 17.9951C22.3296 17.8675 22.577 17.7712 22.8504 17.7061C23.1238 17.641 23.4025 17.5915 23.6863 17.5576C24.0457 17.516 24.3374 17.4821 24.5613 17.4561C24.7853 17.4274 24.948 17.3818 25.0496 17.3193C25.1512 17.2568 25.202 17.1553 25.202 17.0146V16.9873C25.202 16.6462 25.1056 16.3818 24.9129 16.1943C24.7228 16.0068 24.4389 15.9131 24.0613 15.9131C23.6681 15.9131 23.3582 16.0003 23.1316 16.1748C22.9077 16.3467 22.7527 16.5381 22.6668 16.749L21.5691 16.499C21.6993 16.1344 21.8895 15.8402 22.1395 15.6162C22.3921 15.3896 22.6824 15.2256 23.0105 15.124C23.3387 15.0199 23.6837 14.9678 24.0457 14.9678C24.2853 14.9678 24.5392 14.9964 24.8074 15.0537C25.0783 15.1084 25.3309 15.21 25.5652 15.3584C25.8022 15.5068 25.9962 15.7191 26.1473 15.9951C26.2983 16.2686 26.3738 16.624 26.3738 17.0615V21.0459H25.2332V20.2256H25.1863C25.1108 20.3766 24.9975 20.5251 24.8465 20.6709C24.6954 20.8167 24.5014 20.9378 24.2645 21.0342C24.0275 21.1305 23.7436 21.1787 23.4129 21.1787ZM23.6668 20.2412C23.9897 20.2412 24.2658 20.1774 24.4949 20.0498C24.7267 19.9222 24.9025 19.7555 25.0223 19.5498C25.1447 19.3415 25.2059 19.1188 25.2059 18.8818V18.1084C25.1642 18.1501 25.0835 18.1891 24.9637 18.2256C24.8465 18.2594 24.7124 18.2894 24.5613 18.3154C24.4103 18.3389 24.2632 18.361 24.1199 18.3818C23.9767 18.4001 23.8569 18.4157 23.7605 18.4287C23.534 18.4574 23.327 18.5055 23.1395 18.5732C22.9546 18.641 22.8061 18.7386 22.6941 18.8662C22.5848 18.9912 22.5301 19.1579 22.5301 19.3662C22.5301 19.6553 22.6368 19.874 22.8504 20.0225C23.0639 20.1683 23.3361 20.2412 23.6668 20.2412ZM29.074 19.4092L31.7186 15.0459H32.9764V21.0459H31.8318V16.6787L29.199 21.0459H27.9295V15.0459H29.074V19.4092ZM31.2186 13.0146H32.1795C32.1795 13.4548 32.0232 13.8128 31.7107 14.0889C31.4008 14.3623 30.9816 14.499 30.4529 14.499C29.9269 14.499 29.5089 14.3623 29.199 14.0889C28.8891 13.8128 28.7342 13.4548 28.7342 13.0146H29.6912C29.6912 13.21 29.7485 13.3831 29.8631 13.5342C29.9777 13.6826 30.1743 13.7568 30.4529 13.7568C30.7264 13.7568 30.9217 13.6826 31.0389 13.5342C31.1587 13.3857 31.2186 13.2126 31.2186 13.0146ZM33.8025 16.0537V15.0459H38.865V16.0537H36.908V21.0459H35.7674V16.0537H33.8025ZM41.2449 19.4092L43.8895 15.0459H45.1473V21.0459H44.0027V16.6787L41.3699 21.0459H40.1004V15.0459H41.2449V19.4092Z" fill="white"/>
</svg>
