<svg width="108" height="38" viewBox="0 0 108 38" fill="none" xmlns="http://www.w3.org/2000/svg">
<g filter="url(#filter0_d_149_683)">
<path d="M5.97869 20H4.34801L8.01207 9.81818H9.78693L13.451 20H11.8203L8.94176 11.6676H8.86222L5.97869 20ZM6.25213 16.0128H11.5419V17.3054H6.25213V16.0128ZM14.802 20V12.3636H16.2885V15.5653H17.0044L19.525 12.3636H21.3645L18.4064 16.0774L21.3993 20H19.5549L17.253 16.9474H16.2885V20H14.802ZM22.554 20V12.3636H24.0405V15.5653H24.7564L27.277 12.3636H29.1165L26.1584 16.0774L29.1513 20H27.3068L25.005 16.9474H24.0405V20H22.554ZM32.5282 20.169C32.0443 20.169 31.6068 20.0795 31.2157 19.9006C30.8246 19.7183 30.5147 19.4548 30.286 19.1101C30.0607 18.7654 29.948 18.3428 29.948 17.8423C29.948 17.4115 30.0308 17.0568 30.1966 16.7784C30.3623 16.5 30.586 16.2796 30.8677 16.1172C31.1494 15.9548 31.4643 15.8321 31.8123 15.7493C32.1603 15.6664 32.515 15.6035 32.8762 15.5604C33.3336 15.5073 33.7048 15.4643 33.9899 15.4311C34.2749 15.3946 34.4821 15.3366 34.6113 15.2571C34.7406 15.1776 34.8052 15.0483 34.8052 14.8693V14.8345C34.8052 14.4003 34.6826 14.0639 34.4373 13.8253C34.1954 13.5866 33.8341 13.4673 33.3535 13.4673C32.853 13.4673 32.4586 13.5784 32.1703 13.8004C31.8852 14.0192 31.688 14.2628 31.5787 14.5312L30.1816 14.2131C30.3474 13.7491 30.5893 13.3745 30.9075 13.0895C31.229 12.8011 31.5985 12.5923 32.0162 12.4631C32.4338 12.3305 32.8729 12.2642 33.3336 12.2642C33.6386 12.2642 33.9617 12.3007 34.3031 12.3736C34.6478 12.4432 34.9693 12.5724 35.2676 12.7614C35.5692 12.9503 35.8161 13.2204 36.0083 13.5717C36.2006 13.9197 36.2967 14.3722 36.2967 14.929V20H34.845V18.956H34.7853C34.6892 19.1482 34.545 19.3371 34.3528 19.5227C34.1606 19.7083 33.9136 19.8625 33.612 19.9851C33.3104 20.1077 32.9492 20.169 32.5282 20.169ZM32.8514 18.9759C33.2624 18.9759 33.6137 18.8946 33.9054 18.7322C34.2003 18.5698 34.4241 18.3577 34.5765 18.0959C34.7323 17.8307 34.8102 17.5473 34.8102 17.2457V16.2614C34.7572 16.3144 34.6544 16.3641 34.502 16.4105C34.3528 16.4536 34.1821 16.4917 33.9899 16.5249C33.7976 16.5547 33.6104 16.5829 33.4281 16.6094C33.2458 16.6326 33.0933 16.6525 32.9707 16.669C32.6824 16.7055 32.4189 16.7668 32.1802 16.853C31.9449 16.9392 31.756 17.0634 31.6135 17.2259C31.4743 17.3849 31.4047 17.5971 31.4047 17.8622C31.4047 18.2301 31.5405 18.5085 31.8123 18.6974C32.0841 18.883 32.4305 18.9759 32.8514 18.9759ZM38.9428 22.8636C38.7208 22.8636 38.5186 22.8454 38.3363 22.8089C38.154 22.7758 38.0181 22.7393 37.9286 22.6996L38.2866 21.4815C38.5584 21.5545 38.8003 21.5859 39.0124 21.576C39.2246 21.5661 39.4118 21.4865 39.5742 21.3374C39.7399 21.1882 39.8858 20.9446 40.0117 20.6065L40.1957 20.0994L37.4016 12.3636H38.9925L40.9265 18.2898H41.006L42.94 12.3636H44.5359L41.3888 21.0192C41.243 21.4169 41.0574 21.7533 40.832 22.0284C40.6067 22.3068 40.3382 22.5156 40.0266 22.6548C39.7151 22.794 39.3538 22.8636 38.9428 22.8636ZM51.1083 15.5405V16.8281H46.9719V15.5405H51.1083ZM47.3896 12.3636V20H45.9329V12.3636H47.3896ZM52.1474 12.3636V20H50.6957V12.3636H52.1474ZM53.1889 13.6463V12.3636H59.6321V13.6463H57.1413V20H55.6896V13.6463H53.1889Z" fill="black"/>
<rect x="74" width="30" height="30" rx="6" fill="black"/>
<path fill-rule="evenodd" clip-rule="evenodd" d="M90.4302 16.9675C91.7916 16.4052 92.7497 15.0645 92.7497 13.5C92.7497 11.4289 91.0707 9.75 88.9997 9.75C86.9286 9.75 85.2497 11.4289 85.2497 13.5C85.2497 15.0645 86.2077 16.4052 87.5692 16.9675C86.1749 17.1998 84.8923 17.7657 83.8083 18.5802L85.1898 20.419C86.2511 19.6217 87.5686 19.1496 88.9998 19.1496C90.4309 19.1496 91.7484 19.6217 92.8097 20.419L94.1913 18.5802C93.1072 17.7657 91.8245 17.1997 90.4302 16.9675Z" fill="#F5F5F5"/>
</g>
<defs>
<filter id="filter0_d_149_683" x="0" y="0" width="108" height="38" filterUnits="userSpaceOnUse" color-interpolation-filters="sRGB">
<feFlood flood-opacity="0" result="BackgroundImageFix"/>
<feColorMatrix in="SourceAlpha" type="matrix" values="0 0 0 0 0 0 0 0 0 0 0 0 0 0 0 0 0 0 127 0" result="hardAlpha"/>
<feOffset dy="4"/>
<feGaussianBlur stdDeviation="2"/>
<feComposite in2="hardAlpha" operator="out"/>
<feColorMatrix type="matrix" values="0 0 0 0 0 0 0 0 0 0 0 0 0 0 0 0 0 0 0.25 0"/>
<feBlend mode="normal" in2="BackgroundImageFix" result="effect1_dropShadow_149_683"/>
<feBlend mode="normal" in="SourceGraphic" in2="effect1_dropShadow_149_683" result="shape"/>
</filter>
</defs>
</svg>
