<svg width="108" height="38" viewBox="0 0 108 38" fill="none" xmlns="http://www.w3.org/2000/svg">
  <g>
    <path d="M5.97869 20L6.91335 17.3054H10.8906L11.8203 20H13.451L9.78693 9.81818H8.01207L4.34801 20H5.97869ZM7.3608 16.0128L8.86222 11.6676H8.94176L10.4432 16.0128H7.3608ZM14.802 20H16.2885V16.9474H17.253L19.5549 20H21.3993L18.4064 16.0774L21.3645 12.3636H19.525L17.0044 15.5653H16.2885V12.3636H14.802V20ZM22.554 20H24.0405V16.9474H25.005L27.3068 20H29.1513L26.1584 16.0774L29.1165 12.3636H27.277L24.7564 15.5653H24.0405V12.3636H22.554V20ZM32.5282 20.169C33.791 20.169 34.502 19.5277 34.7853 18.956H34.845V20H36.2967V14.929C36.2967 12.7067 34.5467 12.2642 33.3336 12.2642C31.9515 12.2642 30.6788 12.821 30.1816 14.2131L31.5787 14.5312C31.7974 13.9893 32.3542 13.4673 33.3535 13.4673C34.313 13.4673 34.8052 13.9695 34.8052 14.8345V14.8693C34.8052 15.4112 34.2484 15.4013 32.8762 15.5604C31.4295 15.7294 29.948 16.1072 29.948 17.8423C29.948 19.3438 31.0765 20.169 32.5282 20.169ZM32.8514 18.9759C32.0112 18.9759 31.4047 18.598 31.4047 17.8622C31.4047 17.0668 32.1106 16.7834 32.9707 16.669C33.4529 16.6044 34.5964 16.4751 34.8102 16.2614V17.2457C34.8102 18.1506 34.0893 18.9759 32.8514 18.9759ZM38.9428 22.8438C40.1708 22.8438 40.9513 22.2024 41.3888 21.0192L44.5458 12.3786L42.94 12.3636L41.006 18.2898H40.9265L38.9925 12.3636H37.4016L40.1957 20.0994L40.0117 20.6065C39.6339 21.5959 39.1019 21.6854 38.2866 21.4616L37.9286 22.6797C38.1076 22.7642 38.4954 22.8438 38.9428 22.8438ZM47.4032 12.3636H45.9466V20H47.4032V16.8281H50.7093V20H52.161V12.3636H50.7093V15.5405H47.4032V12.3636ZM53.2026 13.6463H55.7033V20H57.155V13.6463H59.6458V12.3636H53.2026V13.6463Z" fill="black"/>
    <rect x="74" width="30" height="30" rx="6" fill="#F5F5F5"/>
    <path fill-rule="evenodd" clip-rule="evenodd" d="M90.4302 16.9675C91.7916 16.4052 92.7497 15.0645 92.7497 13.5C92.7497 11.4289 91.0707 9.75 88.9997 9.75C86.9286 9.75 85.2497 11.4289 85.2497 13.5C85.2497 15.0645 86.2077 16.4052 87.5692 16.9675C86.1749 17.1998 84.8923 17.7657 83.8083 18.5802L85.1898 20.419C86.2511 19.6217 87.5686 19.1496 88.9998 19.1496C90.4309 19.1496 91.7484 19.6217 92.8097 20.419L94.1913 18.5802C93.1072 17.7657 91.8245 17.1997 90.4302 16.9675Z" fill="black"/>
  </g>
</svg>
